<?xml version="1.0" encoding="UTF-8"?>
<svg xmlns="http://www.w3.org/2000/svg" width="1800" height="1200">
<rect width="100%%" height="100%%" fill="#0d0d1a"/>
<text x="900" y="35" text-anchor="middle" fill="#ffffff" font-family="Menlo" font-size="22" font-weight="bold">Full MySQL Schema Graph</text>
<text x="900" y="58" text-anchor="middle" fill="#888" font-family="Menlo" font-size="13">3 databases, all tables, cross-db relationships</text>
<rect x="300" y="100" width="550" height="502" fill="#4A90D9" fill-opacity="0.05" stroke="#4A90D9" stroke-width="2" rx="8"/>
<text x="315" y="125" fill="#4A90D9" font-family="Menlo" font-size="14" font-weight="bold">CODEBASE
(File Store + Index)</text>
<text x="315" y="142" fill="#888" font-family="Menlo" font-size="11">21 tables, 2,348,565 rows</text>
<rect x="900" y="100" width="550" height="502" fill="#F5A623" fill-opacity="0.05" stroke="#F5A623" stroke-width="2" rx="8"/>
<text x="915" y="125" fill="#F5A623" font-family="Menlo" font-size="14" font-weight="bold">vb_code_test
(BCL + MU Engine)</text>
<text x="915" y="142" fill="#888" font-family="Menlo" font-size="11">21 tables, 21,730 rows</text>
<rect x="300" y="650" width="550" height="2152" fill="#7ED321" fill-opacity="0.05" stroke="#7ED321" stroke-width="2" rx="8"/>
<text x="315" y="675" fill="#7ED321" font-family="Menlo" font-size="14" font-weight="bold">vb_shared
(Knowledge + Rules)</text>
<text x="315" y="692" fill="#888" font-family="Menlo" font-size="11">96 tables, 256,066 rows</text>
<line x1="325" y1="231" x2="325" y2="165" stroke="#444466" stroke-width="1" stroke-dasharray="3,2" opacity="0.4"/>
<line x1="325" y1="231" x2="325" y2="209" stroke="#444466" stroke-width="1" stroke-dasharray="3,2" opacity="0.4"/>
<line x1="325" y1="231" x2="325" y2="231" stroke="#444466" stroke-width="1" stroke-dasharray="3,2" opacity="0.4"/>
<line x1="325" y1="165" x2="595" y2="165" stroke="#444466" stroke-width="1" stroke-dasharray="3,2" opacity="0.4"/>
<line x1="325" y1="165" x2="595" y2="187" stroke="#444466" stroke-width="1" stroke-dasharray="3,2" opacity="0.4"/>
<line x1="325" y1="165" x2="325" y2="187" stroke="#444466" stroke-width="1" stroke-dasharray="3,2" opacity="0.4"/>
<line x1="325" y1="297" x2="595" y2="165" stroke="#444466" stroke-width="1" stroke-dasharray="3,2" opacity="0.4"/>
<line x1="1195" y1="187" x2="925" y2="165" stroke="#444466" stroke-width="1" stroke-dasharray="3,2" opacity="0.4"/>
<line x1="925" y1="231" x2="925" y2="209" stroke="#444466" stroke-width="1" stroke-dasharray="3,2" opacity="0.4"/>
<line x1="1195" y1="253" x2="1195" y2="209" stroke="#444466" stroke-width="1" stroke-dasharray="3,2" opacity="0.4"/>
<line x1="1195" y1="253" x2="925" y2="297" stroke="#444466" stroke-width="1" stroke-dasharray="3,2" opacity="0.4"/>
<line x1="925" y1="209" x2="1195" y2="165" stroke="#444466" stroke-width="1" stroke-dasharray="3,2" opacity="0.4"/>
<line x1="925" y1="209" x2="1195" y2="363" stroke="#444466" stroke-width="1" stroke-dasharray="3,2" opacity="0.4"/>
<line x1="1195" y1="363" x2="1195" y2="297" stroke="#444466" stroke-width="1" stroke-dasharray="3,2" opacity="0.4"/>
<line x1="1195" y1="297" x2="1195" y2="319" stroke="#444466" stroke-width="1" stroke-dasharray="3,2" opacity="0.4"/>
<line x1="1195" y1="297" x2="925" y2="253" stroke="#444466" stroke-width="1" stroke-dasharray="3,2" opacity="0.4"/>
<line x1="1195" y1="297" x2="925" y2="319" stroke="#444466" stroke-width="1" stroke-dasharray="3,2" opacity="0.4"/>
<line x1="1195" y1="297" x2="925" y2="275" stroke="#444466" stroke-width="1" stroke-dasharray="3,2" opacity="0.4"/>
<line x1="1195" y1="297" x2="925" y2="385" stroke="#444466" stroke-width="1" stroke-dasharray="3,2" opacity="0.4"/>
<line x1="1195" y1="297" x2="925" y2="363" stroke="#444466" stroke-width="1" stroke-dasharray="3,2" opacity="0.4"/>
<line x1="595" y1="803" x2="325" y2="825" stroke="#444466" stroke-width="1" stroke-dasharray="3,2" opacity="0.4"/>
<line x1="325" y1="715" x2="325" y2="737" stroke="#444466" stroke-width="1" stroke-dasharray="3,2" opacity="0.4"/>
<line x1="325" y1="847" x2="595" y2="847" stroke="#444466" stroke-width="1" stroke-dasharray="3,2" opacity="0.4"/>
<line x1="325" y1="847" x2="325" y2="957" stroke="#444466" stroke-width="1" stroke-dasharray="3,2" opacity="0.4"/>
<line x1="325" y1="847" x2="595" y2="1639" stroke="#444466" stroke-width="1" stroke-dasharray="3,2" opacity="0.4"/>
<line x1="325" y1="891" x2="595" y2="737" stroke="#444466" stroke-width="1" stroke-dasharray="3,2" opacity="0.4"/>
<line x1="325" y1="781" x2="595" y2="737" stroke="#444466" stroke-width="1" stroke-dasharray="3,2" opacity="0.4"/>
<line x1="325" y1="891" x2="595" y2="759" stroke="#444466" stroke-width="1" stroke-dasharray="3,2" opacity="0.4"/>
<line x1="325" y1="891" x2="325" y2="1199" stroke="#444466" stroke-width="1" stroke-dasharray="3,2" opacity="0.4"/>
<line x1="325" y1="891" x2="325" y2="1221" stroke="#444466" stroke-width="1" stroke-dasharray="3,2" opacity="0.4"/>
<line x1="595" y1="803" x2="325" y2="1375" stroke="#444466" stroke-width="1" stroke-dasharray="3,2" opacity="0.4"/>
<line x1="595" y1="1749" x2="595" y2="1001" stroke="#444466" stroke-width="1" stroke-dasharray="3,2" opacity="0.4"/>
<line x1="325" y1="1639" x2="325" y2="1441" stroke="#444466" stroke-width="1" stroke-dasharray="3,2" opacity="0.4"/>
<line x1="325" y1="297" x2="1195" y2="253" stroke="#FF4444" stroke-width="1" stroke-dasharray="5,3" opacity="0.4"/>
<line x1="595" y1="165" x2="325" y2="891" stroke="#FF4444" stroke-width="1" stroke-dasharray="5,3" opacity="0.4"/>
<line x1="1195" y1="187" x2="325" y2="891" stroke="#FF4444" stroke-width="1" stroke-dasharray="5,3" opacity="0.4"/>
<line x1="925" y1="209" x2="325" y2="979" stroke="#FF4444" stroke-width="1" stroke-dasharray="5,3" opacity="0.4"/>
<line x1="1195" y1="297" x2="595" y2="1001" stroke="#FF4444" stroke-width="1" stroke-dasharray="5,3" opacity="0.4"/>
<line x1="595" y1="935" x2="1195" y2="363" stroke="#FF4444" stroke-width="1" stroke-dasharray="5,3" opacity="0.4"/>
<circle cx="320" cy="204" r="3" fill="#4A90D9" fill-opacity="0.6"/>
<text x="332" y="207" fill="#ccc" font-family="Menlo" font-size="9">c_files</text>
<text x="332" y="217" fill="#666" font-family="Menlo" font-size="8">64,250</text>
<circle cx="320" cy="292" r="3" fill="#4A90D9" fill-opacity="0.6"/>
<text x="332" y="295" fill="#ccc" font-family="Menlo" font-size="9">computational_units</text>
<text x="332" y="305" fill="#666" font-family="Menlo" font-size="8">33</text>
<circle cx="320" cy="270" r="3" fill="#4A90D9" fill-opacity="0.6"/>
<text x="332" y="273" fill="#ccc" font-family="Menlo" font-size="9">csharp_files</text>
<text x="332" y="283" fill="#666" font-family="Menlo" font-size="8">1,634</text>
<circle cx="320" cy="226" r="3" fill="#4A90D9" fill-opacity="0.6"/>
<text x="332" y="229" fill="#ccc" font-family="Menlo" font-size="9">directories</text>
<text x="332" y="239" fill="#666" font-family="Menlo" font-size="8">16,625</text>
<circle cx="590" cy="270" r="3" fill="#4A90D9" fill-opacity="0.6"/>
<text x="602" y="273" fill="#ccc" font-family="Menlo" font-size="9">file_archive</text>
<text x="602" y="283" fill="#666" font-family="Menlo" font-size="8">1,261</text>
<circle cx="590" cy="182" r="6" fill="#4A90D9" fill-opacity="0.6"/>
<text x="602" y="185" fill="#ccc" font-family="Menlo" font-size="9">file_checkpoint</text>
<text x="602" y="195" fill="#666" font-family="Menlo" font-size="8">420,299</text>
<circle cx="320" cy="314" r="3" fill="#4A90D9" fill-opacity="0.6"/>
<text x="332" y="317" fill="#ccc" font-family="Menlo" font-size="9">ingest_solutions</text>
<text x="332" y="327" fill="#666" font-family="Menlo" font-size="8">1</text>
<circle cx="320" cy="182" r="6" fill="#4A90D9" fill-opacity="0.6"/>
<text x="332" y="185" fill="#ccc" font-family="Menlo" font-size="9">ingestion_jobs</text>
<text x="332" y="195" fill="#666" font-family="Menlo" font-size="8">442,433</text>
<circle cx="590" cy="226" r="3" fill="#4A90D9" fill-opacity="0.6"/>
<text x="602" y="229" fill="#ccc" font-family="Menlo" font-size="9">json_files</text>
<text x="602" y="239" fill="#666" font-family="Menlo" font-size="8">14,064</text>
<circle cx="590" cy="204" r="3" fill="#4A90D9" fill-opacity="0.6"/>
<text x="602" y="207" fill="#ccc" font-family="Menlo" font-size="9">markdown_files</text>
<text x="602" y="217" fill="#666" font-family="Menlo" font-size="8">36,866</text>
<circle cx="590" cy="314" r="3" fill="#4A90D9" fill-opacity="0.6"/>
<text x="602" y="317" fill="#ccc" font-family="Menlo" font-size="9">python_baseclass_index</text>
<circle cx="590" cy="160" r="8" fill="#4A90D9" fill-opacity="0.6"/>
<text x="602" y="163" fill="#ccc" font-family="Menlo" font-size="9">python_class_index</text>
<text x="602" y="173" fill="#666" font-family="Menlo" font-size="8">559,151</text>
<circle cx="320" cy="336" r="3" fill="#4A90D9" fill-opacity="0.6"/>
<text x="332" y="339" fill="#ccc" font-family="Menlo" font-size="9">python_decorator_index</text>
<circle cx="320" cy="160" r="10" fill="#4A90D9" fill-opacity="0.6"/>
<text x="332" y="163" fill="#ccc" font-family="Menlo" font-size="9">python_files</text>
<text x="332" y="173" fill="#666" font-family="Menlo" font-size="8">774,649</text>
<circle cx="590" cy="336" r="3" fill="#4A90D9" fill-opacity="0.6"/>
<text x="602" y="339" fill="#ccc" font-family="Menlo" font-size="9">python_import_index</text>
<circle cx="320" cy="358" r="3" fill="#4A90D9" fill-opacity="0.6"/>
<text x="332" y="361" fill="#ccc" font-family="Menlo" font-size="9">python_index_state</text>
<circle cx="590" cy="358" r="3" fill="#4A90D9" fill-opacity="0.6"/>
<text x="602" y="361" fill="#ccc" font-family="Menlo" font-size="9">python_method_index</text>
<circle cx="320" cy="380" r="3" fill="#4A90D9" fill-opacity="0.6"/>
<text x="332" y="383" fill="#ccc" font-family="Menlo" font-size="9">python_run_index</text>
<circle cx="320" cy="248" r="3" fill="#4A90D9" fill-opacity="0.6"/>
<text x="332" y="251" fill="#ccc" font-family="Menlo" font-size="9">swift_files</text>
<text x="332" y="261" fill="#666" font-family="Menlo" font-size="8">11,213</text>
<circle cx="590" cy="292" r="3" fill="#4A90D9" fill-opacity="0.6"/>
<text x="602" y="295" fill="#ccc" font-family="Menlo" font-size="9">tune_history</text>
<text x="602" y="305" fill="#666" font-family="Menlo" font-size="8">9</text>
<circle cx="590" cy="248" r="3" fill="#4A90D9" fill-opacity="0.6"/>
<text x="602" y="251" fill="#ccc" font-family="Menlo" font-size="9">yaml_files</text>
<text x="602" y="261" fill="#666" font-family="Menlo" font-size="8">6,077</text>
<circle cx="920" cy="226" r="3" fill="#F5A623" fill-opacity="0.6"/>
<text x="932" y="229" fill="#ccc" font-family="Menlo" font-size="9">bcl_classes</text>
<text x="932" y="239" fill="#666" font-family="Menlo" font-size="8">63</text>
<circle cx="1190" cy="336" r="3" fill="#F5A623" fill-opacity="0.6"/>
<text x="1202" y="339" fill="#ccc" font-family="Menlo" font-size="9">bcl_codebases</text>
<text x="1202" y="349" fill="#666" font-family="Menlo" font-size="8">2</text>
<circle cx="1190" cy="160" r="5" fill="#F5A623" fill-opacity="0.6"/>
<text x="1202" y="163" fill="#ccc" font-family="Menlo" font-size="9">bcl_edges</text>
<text x="1202" y="173" fill="#666" font-family="Menlo" font-size="8">4,147</text>
<circle cx="1190" cy="226" r="3" fill="#F5A623" fill-opacity="0.6"/>
<text x="1202" y="229" fill="#ccc" font-family="Menlo" font-size="9">bcl_files</text>
<text x="1202" y="239" fill="#666" font-family="Menlo" font-size="8">54</text>
<circle cx="920" cy="204" r="3" fill="#F5A623" fill-opacity="0.6"/>
<text x="932" y="207" fill="#ccc" font-family="Menlo" font-size="9">bcl_methods</text>
<text x="932" y="217" fill="#666" font-family="Menlo" font-size="8">655</text>
<circle cx="920" cy="336" r="3" fill="#F5A623" fill-opacity="0.6"/>
<text x="932" y="339" fill="#ccc" font-family="Menlo" font-size="9">bcl_stamp_events</text>
<text x="932" y="349" fill="#666" font-family="Menlo" font-size="8">4</text>
<circle cx="1190" cy="358" r="3" fill="#F5A623" fill-opacity="0.6"/>
<text x="1202" y="361" fill="#ccc" font-family="Menlo" font-size="9">bcl_stamps</text>
<text x="1202" y="371" fill="#666" font-family="Menlo" font-size="8">1</text>
<circle cx="920" cy="292" r="3" fill="#F5A623" fill-opacity="0.6"/>
<text x="932" y="295" fill="#ccc" font-family="Menlo" font-size="9">bcl_unit_deps</text>
<text x="932" y="305" fill="#666" font-family="Menlo" font-size="8">7</text>
<circle cx="1190" cy="204" r="3" fill="#F5A623" fill-opacity="0.6"/>
<text x="1202" y="207" fill="#ccc" font-family="Menlo" font-size="9">bcl_unit_methods</text>
<text x="1202" y="217" fill="#666" font-family="Menlo" font-size="8">78</text>
<circle cx="1190" cy="248" r="3" fill="#F5A623" fill-opacity="0.6"/>
<text x="1202" y="251" fill="#ccc" font-family="Menlo" font-size="9">bcl_units</text>
<text x="1202" y="261" fill="#666" font-family="Menlo" font-size="8">24</text>
<circle cx="1190" cy="270" r="3" fill="#F5A623" fill-opacity="0.6"/>
<text x="1202" y="273" fill="#ccc" font-family="Menlo" font-size="9">mu_edge_state</text>
<text x="1202" y="283" fill="#666" font-family="Menlo" font-size="8">10</text>
<circle cx="1190" cy="314" r="3" fill="#F5A623" fill-opacity="0.6"/>
<text x="1202" y="317" fill="#ccc" font-family="Menlo" font-size="9">mu_edges</text>
<text x="1202" y="327" fill="#666" font-family="Menlo" font-size="8">5</text>
<circle cx="920" cy="248" r="3" fill="#F5A623" fill-opacity="0.6"/>
<text x="932" y="251" fill="#ccc" font-family="Menlo" font-size="9">mu_events</text>
<text x="932" y="261" fill="#666" font-family="Menlo" font-size="8">44</text>
<circle cx="920" cy="358" r="3" fill="#F5A623" fill-opacity="0.6"/>
<text x="932" y="361" fill="#ccc" font-family="Menlo" font-size="9">mu_execution_state</text>
<text x="932" y="371" fill="#666" font-family="Menlo" font-size="8">2</text>
<circle cx="920" cy="270" r="3" fill="#F5A623" fill-opacity="0.6"/>
<text x="932" y="273" fill="#ccc" font-family="Menlo" font-size="9">mu_node_state</text>
<text x="932" y="283" fill="#666" font-family="Menlo" font-size="8">14</text>
<circle cx="1190" cy="292" r="3" fill="#F5A623" fill-opacity="0.6"/>
<text x="1202" y="295" fill="#ccc" font-family="Menlo" font-size="9">mu_nodes</text>
<text x="1202" y="305" fill="#666" font-family="Menlo" font-size="8">7</text>
<circle cx="920" cy="380" r="3" fill="#F5A623" fill-opacity="0.6"/>
<text x="932" y="383" fill="#ccc" font-family="Menlo" font-size="9">mu_packets</text>
<text x="932" y="393" fill="#666" font-family="Menlo" font-size="8">1</text>
<circle cx="920" cy="314" r="3" fill="#F5A623" fill-opacity="0.6"/>
<text x="932" y="317" fill="#ccc" font-family="Menlo" font-size="9">mu_semantic_tags</text>
<text x="932" y="327" fill="#666" font-family="Menlo" font-size="8">6</text>
<circle cx="920" cy="182" r="3" fill="#F5A623" fill-opacity="0.6"/>
<text x="932" y="185" fill="#ccc" font-family="Menlo" font-size="9">vb_class_test_results</text>
<text x="932" y="195" fill="#666" font-family="Menlo" font-size="8">1,394</text>
<circle cx="1190" cy="182" r="3" fill="#F5A623" fill-opacity="0.6"/>
<text x="1202" y="185" fill="#ccc" font-family="Menlo" font-size="9">vb_classes</text>
<text x="1202" y="195" fill="#666" font-family="Menlo" font-size="8">1,394</text>
<circle cx="920" cy="160" r="10" fill="#F5A623" fill-opacity="0.6"/>
<text x="932" y="163" fill="#ccc" font-family="Menlo" font-size="9">vb_methods</text>
<text x="932" y="173" fill="#666" font-family="Menlo" font-size="8">13,818</text>
<circle cx="590" cy="1678" r="3" fill="#7ED321" fill-opacity="0.6"/>
<text x="602" y="1681" fill="#ccc" font-family="Menlo" font-size="9">_tokens_mem</text>
<circle cx="590" cy="1524" r="3" fill="#7ED321" fill-opacity="0.6"/>
<text x="602" y="1527" fill="#ccc" font-family="Menlo" font-size="9">about_text</text>
<text x="602" y="1537" fill="#666" font-family="Menlo" font-size="8">8</text>
<circle cx="320" cy="1634" r="3" fill="#7ED321" fill-opacity="0.6"/>
<text x="332" y="1637" fill="#ccc" font-family="Menlo" font-size="9">anti_collapse_hypotheses</text>
<text x="332" y="1647" fill="#666" font-family="Menlo" font-size="8">2</text>
<circle cx="320" cy="1436" r="3" fill="#7ED321" fill-opacity="0.6"/>
<text x="332" y="1439" fill="#ccc" font-family="Menlo" font-size="9">anti_collapse_questions</text>
<text x="332" y="1449" fill="#666" font-family="Menlo" font-size="8">11</text>
<circle cx="320" cy="1260" r="3" fill="#7ED321" fill-opacity="0.6"/>
<text x="332" y="1263" fill="#ccc" font-family="Menlo" font-size="9">anti_collapse_templates</text>
<text x="332" y="1273" fill="#666" font-family="Menlo" font-size="8">29</text>
<circle cx="590" cy="1238" r="3" fill="#7ED321" fill-opacity="0.6"/>
<text x="602" y="1241" fill="#ccc" font-family="Menlo" font-size="9">c_classes</text>
<text x="602" y="1251" fill="#666" font-family="Menlo" font-size="8">30</text>
<circle cx="320" cy="1700" r="3" fill="#7ED321" fill-opacity="0.6"/>
<text x="332" y="1703" fill="#ccc" font-family="Menlo" font-size="9">c_methods</text>
<circle cx="590" cy="1392" r="3" fill="#7ED321" fill-opacity="0.6"/>
<text x="602" y="1395" fill="#ccc" font-family="Menlo" font-size="9">categories</text>
<text x="602" y="1405" fill="#666" font-family="Menlo" font-size="8">12</text>
<circle cx="320" cy="864" r="3" fill="#7ED321" fill-opacity="0.6"/>
<text x="332" y="867" fill="#ccc" font-family="Menlo" font-size="9">chat_ingestions</text>
<text x="332" y="877" fill="#666" font-family="Menlo" font-size="8">324</text>
<circle cx="320" cy="1194" r="3" fill="#7ED321" fill-opacity="0.6"/>
<text x="332" y="1197" fill="#ccc" font-family="Menlo" font-size="9">class_graph</text>
<text x="332" y="1207" fill="#666" font-family="Menlo" font-size="8">36</text>
<circle cx="320" cy="1216" r="3" fill="#7ED321" fill-opacity="0.6"/>
<text x="332" y="1219" fill="#ccc" font-family="Menlo" font-size="9">class_understandings</text>
<text x="332" y="1229" fill="#666" font-family="Menlo" font-size="8">33</text>
<circle cx="320" cy="886" r="3" fill="#7ED321" fill-opacity="0.6"/>
<text x="332" y="889" fill="#ccc" font-family="Menlo" font-size="9">code_classes</text>
<text x="332" y="899" fill="#666" font-family="Menlo" font-size="8">301</text>
<circle cx="590" cy="754" r="3" fill="#7ED321" fill-opacity="0.6"/>
<text x="602" y="757" fill="#ccc" font-family="Menlo" font-size="9">code_co_occurrence</text>
<text x="602" y="767" fill="#666" font-family="Menlo" font-size="8">12,248</text>
<circle cx="590" cy="1700" r="3" fill="#7ED321" fill-opacity="0.6"/>
<text x="602" y="1703" fill="#ccc" font-family="Menlo" font-size="9">code_concept_clusters</text>
<circle cx="320" cy="1722" r="3" fill="#7ED321" fill-opacity="0.6"/>
<text x="332" y="1725" fill="#ccc" font-family="Menlo" font-size="9">code_contradictions</text>
<circle cx="320" cy="754" r="3" fill="#7ED321" fill-opacity="0.6"/>
<text x="332" y="757" fill="#ccc" font-family="Menlo" font-size="9">code_identifier_frequency</text>
<text x="332" y="767" fill="#666" font-family="Menlo" font-size="8">13,518</text>
<circle cx="590" cy="732" r="4" fill="#7ED321" fill-opacity="0.6"/>
<text x="602" y="735" fill="#ccc" font-family="Menlo" font-size="9">code_index</text>
<text x="602" y="745" fill="#666" font-family="Menlo" font-size="8">24,658</text>
<circle cx="590" cy="952" r="3" fill="#7ED321" fill-opacity="0.6"/>
<text x="602" y="955" fill="#ccc" font-family="Menlo" font-size="9">code_registry</text>
<text x="602" y="965" fill="#666" font-family="Menlo" font-size="8">201</text>
<circle cx="320" cy="908" r="3" fill="#7ED321" fill-opacity="0.6"/>
<text x="332" y="911" fill="#ccc" font-family="Menlo" font-size="9">common_text</text>
<text x="332" y="921" fill="#666" font-family="Menlo" font-size="8">288</text>
<circle cx="320" cy="1326" r="3" fill="#7ED321" fill-opacity="0.6"/>
<text x="332" y="1329" fill="#ccc" font-family="Menlo" font-size="9">component_ontology</text>
<text x="332" y="1339" fill="#666" font-family="Menlo" font-size="8">19</text>
<circle cx="590" cy="1106" r="3" fill="#7ED321" fill-opacity="0.6"/>
<text x="602" y="1109" fill="#ccc" font-family="Menlo" font-size="9">conditional_rules</text>
<text x="602" y="1119" fill="#666" font-family="Menlo" font-size="8">52</text>
<circle cx="590" cy="1546" r="3" fill="#7ED321" fill-opacity="0.6"/>
<text x="602" y="1549" fill="#ccc" font-family="Menlo" font-size="9">conflict_resolution_rule</text>
<text x="602" y="1559" fill="#666" font-family="Menlo" font-size="8">4</text>
<circle cx="320" cy="1568" r="3" fill="#7ED321" fill-opacity="0.6"/>
<text x="332" y="1571" fill="#ccc" font-family="Menlo" font-size="9">consistency_checks</text>
<text x="332" y="1581" fill="#666" font-family="Menlo" font-size="8">4</text>
<circle cx="590" cy="1370" r="3" fill="#7ED321" fill-opacity="0.6"/>
<text x="602" y="1373" fill="#ccc" font-family="Menlo" font-size="9">constants</text>
<text x="602" y="1383" fill="#666" font-family="Menlo" font-size="8">15</text>
<circle cx="320" cy="1392" r="3" fill="#7ED321" fill-opacity="0.6"/>
<text x="332" y="1395" fill="#ccc" font-family="Menlo" font-size="9">context_menus</text>
<text x="332" y="1405" fill="#666" font-family="Menlo" font-size="8">14</text>
<circle cx="590" cy="1282" r="3" fill="#7ED321" fill-opacity="0.6"/>
<text x="602" y="1285" fill="#ccc" font-family="Menlo" font-size="9">context_vector</text>
<text x="602" y="1295" fill="#666" font-family="Menlo" font-size="8">27</text>
<circle cx="320" cy="1414" r="3" fill="#7ED321" fill-opacity="0.6"/>
<text x="332" y="1417" fill="#ccc" font-family="Menlo" font-size="9">decision_principles</text>
<text x="332" y="1427" fill="#666" font-family="Menlo" font-size="8">12</text>
<circle cx="590" cy="1480" r="3" fill="#7ED321" fill-opacity="0.6"/>
<text x="602" y="1483" fill="#ccc" font-family="Menlo" font-size="9">decision_trees</text>
<text x="602" y="1493" fill="#666" font-family="Menlo" font-size="8">9</text>
<circle cx="590" cy="1722" r="3" fill="#7ED321" fill-opacity="0.6"/>
<text x="602" y="1725" fill="#ccc" font-family="Menlo" font-size="9">design_patterns</text>
<circle cx="590" cy="908" r="3" fill="#7ED321" fill-opacity="0.6"/>
<text x="602" y="911" fill="#ccc" font-family="Menlo" font-size="9">designrationale</text>
<text x="602" y="921" fill="#666" font-family="Menlo" font-size="8">284</text>
<circle cx="590" cy="974" r="3" fill="#7ED321" fill-opacity="0.6"/>
<text x="602" y="977" fill="#ccc" font-family="Menlo" font-size="9">domains</text>
<text x="602" y="987" fill="#666" font-family="Menlo" font-size="8">166</text>
<circle cx="320" cy="798" r="3" fill="#7ED321" fill-opacity="0.6"/>
<text x="332" y="801" fill="#ccc" font-family="Menlo" font-size="9">err_tokens</text>
<text x="332" y="811" fill="#666" font-family="Menlo" font-size="8">5,110</text>
<circle cx="320" cy="1018" r="3" fill="#7ED321" fill-opacity="0.6"/>
<text x="332" y="1021" fill="#ccc" font-family="Menlo" font-size="9">error_knowledge</text>
<text x="332" y="1031" fill="#666" font-family="Menlo" font-size="8">139</text>
<circle cx="590" cy="1194" r="3" fill="#7ED321" fill-opacity="0.6"/>
<text x="602" y="1197" fill="#ccc" font-family="Menlo" font-size="9">evaluation_report</text>
<text x="602" y="1207" fill="#666" font-family="Menlo" font-size="8">36</text>
<circle cx="590" cy="820" r="3" fill="#7ED321" fill-opacity="0.6"/>
<text x="602" y="823" fill="#ccc" font-family="Menlo" font-size="9">execution_log</text>
<text x="602" y="833" fill="#666" font-family="Menlo" font-size="8">404</text>
<circle cx="590" cy="1304" r="3" fill="#7ED321" fill-opacity="0.6"/>
<text x="602" y="1307" fill="#ccc" font-family="Menlo" font-size="9">fix_attempts</text>
<text x="602" y="1317" fill="#666" font-family="Menlo" font-size="8">22</text>
<circle cx="590" cy="1568" r="3" fill="#7ED321" fill-opacity="0.6"/>
<text x="602" y="1571" fill="#ccc" font-family="Menlo" font-size="9">flow_tokens</text>
<text x="602" y="1581" fill="#666" font-family="Menlo" font-size="8">4</text>
<circle cx="320" cy="1106" r="3" fill="#7ED321" fill-opacity="0.6"/>
<text x="332" y="1109" fill="#ccc" font-family="Menlo" font-size="9">governance</text>
<text x="332" y="1119" fill="#666" font-family="Menlo" font-size="8">58</text>
<circle cx="320" cy="996" r="3" fill="#7ED321" fill-opacity="0.6"/>
<text x="332" y="999" fill="#ccc" font-family="Menlo" font-size="9">graph_config</text>
<text x="332" y="1009" fill="#666" font-family="Menlo" font-size="8">154</text>
<circle cx="320" cy="1040" r="3" fill="#7ED321" fill-opacity="0.6"/>
<text x="332" y="1043" fill="#ccc" font-family="Menlo" font-size="9">graph_conversations</text>
<text x="332" y="1053" fill="#666" font-family="Menlo" font-size="8">102</text>
<circle cx="590" cy="710" r="5" fill="#7ED321" fill-opacity="0.6"/>
<text x="602" y="713" fill="#ccc" font-family="Menlo" font-size="9">graph_edges</text>
<text x="602" y="723" fill="#666" font-family="Menlo" font-size="8">33,775</text>
<circle cx="320" cy="1128" r="3" fill="#7ED321" fill-opacity="0.6"/>
<text x="332" y="1131" fill="#ccc" font-family="Menlo" font-size="9">graph_nodes</text>
<text x="332" y="1141" fill="#666" font-family="Menlo" font-size="8">50</text>
<circle cx="590" cy="1326" r="3" fill="#7ED321" fill-opacity="0.6"/>
<text x="602" y="1329" fill="#ccc" font-family="Menlo" font-size="9">gui_tokens</text>
<text x="602" y="1339" fill="#666" font-family="Menlo" font-size="8">19</text>
<circle cx="320" cy="1458" r="3" fill="#7ED321" fill-opacity="0.6"/>
<text x="332" y="1461" fill="#ccc" font-family="Menlo" font-size="9">help_text</text>
<text x="332" y="1471" fill="#666" font-family="Menlo" font-size="8">10</text>
<circle cx="590" cy="1436" r="3" fill="#7ED321" fill-opacity="0.6"/>
<text x="602" y="1439" fill="#ccc" font-family="Menlo" font-size="9">inference_rules</text>
<text x="602" y="1449" fill="#666" font-family="Menlo" font-size="8">11</text>
<circle cx="590" cy="1040" r="3" fill="#7ED321" fill-opacity="0.6"/>
<text x="602" y="1043" fill="#ccc" font-family="Menlo" font-size="9">instructions</text>
<text x="602" y="1053" fill="#666" font-family="Menlo" font-size="8">99</text>
<circle cx="320" cy="1348" r="3" fill="#7ED321" fill-opacity="0.6"/>
<text x="332" y="1351" fill="#ccc" font-family="Menlo" font-size="9">json_ingestions</text>
<text x="332" y="1361" fill="#666" font-family="Menlo" font-size="8">17</text>
<circle cx="320" cy="1546" r="3" fill="#7ED321" fill-opacity="0.6"/>
<text x="332" y="1549" fill="#ccc" font-family="Menlo" font-size="9">kernel_contracts</text>
<text x="332" y="1559" fill="#666" font-family="Menlo" font-size="8">5</text>
<circle cx="320" cy="732" r="5" fill="#7ED321" fill-opacity="0.6"/>
<text x="332" y="735" fill="#ccc" font-family="Menlo" font-size="9">know_answers</text>
<text x="332" y="745" fill="#666" font-family="Menlo" font-size="8">32,741</text>
<circle cx="320" cy="952" r="3" fill="#7ED321" fill-opacity="0.6"/>
<text x="332" y="955" fill="#ccc" font-family="Menlo" font-size="9">know_causes</text>
<text x="332" y="965" fill="#666" font-family="Menlo" font-size="8">206</text>
<circle cx="320" cy="820" r="3" fill="#7ED321" fill-opacity="0.6"/>
<text x="332" y="823" fill="#ccc" font-family="Menlo" font-size="9">know_edges</text>
<text x="332" y="833" fill="#666" font-family="Menlo" font-size="8">1,516</text>
<circle cx="590" cy="1634" r="3" fill="#7ED321" fill-opacity="0.6"/>
<text x="602" y="1637" fill="#ccc" font-family="Menlo" font-size="9">know_fixes</text>
<text x="602" y="1647" fill="#666" font-family="Menlo" font-size="8">2</text>
<circle cx="590" cy="930" r="3" fill="#7ED321" fill-opacity="0.6"/>
<text x="602" y="933" fill="#ccc" font-family="Menlo" font-size="9">know_lessons</text>
<text x="602" y="943" fill="#666" font-family="Menlo" font-size="8">240</text>
<circle cx="320" cy="1370" r="3" fill="#7ED321" fill-opacity="0.6"/>
<text x="332" y="1373" fill="#ccc" font-family="Menlo" font-size="9">know_memory_units</text>
<text x="332" y="1383" fill="#666" font-family="Menlo" font-size="8">16</text>
<circle cx="590" cy="798" r="3" fill="#7ED321" fill-opacity="0.6"/>
<text x="602" y="801" fill="#ccc" font-family="Menlo" font-size="9">know_nodes</text>
<text x="602" y="811" fill="#666" font-family="Menlo" font-size="8">1,694</text>
<circle cx="320" cy="1590" r="3" fill="#7ED321" fill-opacity="0.6"/>
<text x="332" y="1593" fill="#ccc" font-family="Menlo" font-size="9">know_plans</text>
<text x="332" y="1603" fill="#666" font-family="Menlo" font-size="8">4</text>
<circle cx="320" cy="842" r="3" fill="#7ED321" fill-opacity="0.6"/>
<text x="332" y="845" fill="#ccc" font-family="Menlo" font-size="9">know_problems</text>
<text x="332" y="855" fill="#666" font-family="Menlo" font-size="8">399</text>
<circle cx="320" cy="710" r="10" fill="#7ED321" fill-opacity="0.6"/>
<text x="332" y="713" fill="#ccc" font-family="Menlo" font-size="9">know_questions</text>
<text x="332" y="723" fill="#666" font-family="Menlo" font-size="8">108,037</text>
<circle cx="320" cy="1502" r="3" fill="#7ED321" fill-opacity="0.6"/>
<text x="332" y="1505" fill="#ccc" font-family="Menlo" font-size="9">know_reasoning</text>
<text x="332" y="1515" fill="#666" font-family="Menlo" font-size="8">9</text>
<circle cx="590" cy="842" r="3" fill="#7ED321" fill-opacity="0.6"/>
<text x="602" y="845" fill="#ccc" font-family="Menlo" font-size="9">know_solutions</text>
<text x="602" y="855" fill="#666" font-family="Menlo" font-size="8">381</text>
<circle cx="590" cy="1612" r="3" fill="#7ED321" fill-opacity="0.6"/>
<text x="602" y="1615" fill="#ccc" font-family="Menlo" font-size="9">know_subjects</text>
<text x="602" y="1625" fill="#666" font-family="Menlo" font-size="8">3</text>
<circle cx="590" cy="1128" r="3" fill="#7ED321" fill-opacity="0.6"/>
<text x="602" y="1131" fill="#ccc" font-family="Menlo" font-size="9">know_tokens</text>
<text x="602" y="1141" fill="#666" font-family="Menlo" font-size="8">42</text>
<circle cx="590" cy="1084" r="3" fill="#7ED321" fill-opacity="0.6"/>
<text x="602" y="1087" fill="#ccc" font-family="Menlo" font-size="9">layout_definitions</text>
<text x="602" y="1097" fill="#666" font-family="Menlo" font-size="8">72</text>
<circle cx="320" cy="776" r="3" fill="#7ED321" fill-opacity="0.6"/>
<text x="332" y="779" fill="#ccc" font-family="Menlo" font-size="9">learned_rules</text>
<text x="332" y="789" fill="#666" font-family="Menlo" font-size="8">10,604</text>
<circle cx="320" cy="1744" r="3" fill="#7ED321" fill-opacity="0.6"/>
<text x="332" y="1747" fill="#ccc" font-family="Menlo" font-size="9">memory_object_evolution</text>
<circle cx="590" cy="1744" r="3" fill="#7ED321" fill-opacity="0.6"/>
<text x="602" y="1747" fill="#ccc" font-family="Menlo" font-size="9">memory_objects</text>
<circle cx="320" cy="1282" r="3" fill="#7ED321" fill-opacity="0.6"/>
<text x="332" y="1285" fill="#ccc" font-family="Menlo" font-size="9">menu_items</text>
<text x="332" y="1295" fill="#666" font-family="Menlo" font-size="8">28</text>
<circle cx="320" cy="974" r="3" fill="#7ED321" fill-opacity="0.6"/>
<text x="332" y="977" fill="#ccc" font-family="Menlo" font-size="9">method_inventory</text>
<text x="332" y="987" fill="#666" font-family="Menlo" font-size="8">173</text>
<circle cx="590" cy="996" r="3" fill="#7ED321" fill-opacity="0.6"/>
<text x="602" y="999" fill="#ccc" font-family="Menlo" font-size="9">neural_brain_state</text>
<text x="602" y="1009" fill="#666" font-family="Menlo" font-size="8">148</text>
<circle cx="590" cy="1458" r="3" fill="#7ED321" fill-opacity="0.6"/>
<text x="602" y="1461" fill="#ccc" font-family="Menlo" font-size="9">reusables</text>
<text x="602" y="1471" fill="#666" font-family="Menlo" font-size="8">10</text>
<circle cx="590" cy="1260" r="3" fill="#7ED321" fill-opacity="0.6"/>
<text x="602" y="1263" fill="#ccc" font-family="Menlo" font-size="9">role_explanations</text>
<text x="602" y="1273" fill="#666" font-family="Menlo" font-size="8">29</text>
<circle cx="320" cy="1172" r="3" fill="#7ED321" fill-opacity="0.6"/>
<text x="332" y="1175" fill="#ccc" font-family="Menlo" font-size="9">rule_patterns</text>
<text x="332" y="1185" fill="#666" font-family="Menlo" font-size="8">37</text>
<circle cx="590" cy="886" r="3" fill="#7ED321" fill-opacity="0.6"/>
<text x="602" y="889" fill="#ccc" font-family="Menlo" font-size="9">rule_tokens</text>
<text x="602" y="899" fill="#666" font-family="Menlo" font-size="8">290</text>
<circle cx="320" cy="930" r="3" fill="#7ED321" fill-opacity="0.6"/>
<text x="332" y="933" fill="#ccc" font-family="Menlo" font-size="9">rules</text>
<text x="332" y="943" fill="#666" font-family="Menlo" font-size="8">282</text>
<circle cx="320" cy="1656" r="3" fill="#7ED321" fill-opacity="0.6"/>
<text x="332" y="1659" fill="#ccc" font-family="Menlo" font-size="9">runtime_context</text>
<text x="332" y="1669" fill="#666" font-family="Menlo" font-size="8">1</text>
<circle cx="590" cy="1590" r="3" fill="#7ED321" fill-opacity="0.6"/>
<text x="602" y="1593" fill="#ccc" font-family="Menlo" font-size="9">scoring_model</text>
<text x="602" y="1603" fill="#666" font-family="Menlo" font-size="8">4</text>
<circle cx="590" cy="1656" r="3" fill="#7ED321" fill-opacity="0.6"/>
<text x="602" y="1659" fill="#ccc" font-family="Menlo" font-size="9">session_graphs</text>
<text x="602" y="1669" fill="#666" font-family="Menlo" font-size="8">1</text>
<circle cx="320" cy="1480" r="3" fill="#7ED321" fill-opacity="0.6"/>
<text x="332" y="1483" fill="#ccc" font-family="Menlo" font-size="9">session_paths</text>
<text x="332" y="1493" fill="#666" font-family="Menlo" font-size="8">10</text>
<circle cx="590" cy="1502" r="3" fill="#7ED321" fill-opacity="0.6"/>
<text x="602" y="1505" fill="#ccc" font-family="Menlo" font-size="9">session_resume_points</text>
<text x="602" y="1515" fill="#666" font-family="Menlo" font-size="8">9</text>
<circle cx="590" cy="1216" r="3" fill="#7ED321" fill-opacity="0.6"/>
<text x="602" y="1219" fill="#ccc" font-family="Menlo" font-size="9">settings_fields</text>
<text x="602" y="1229" fill="#666" font-family="Menlo" font-size="8">33</text>
<circle cx="590" cy="1062" r="3" fill="#7ED321" fill-opacity="0.6"/>
<text x="602" y="1065" fill="#ccc" font-family="Menlo" font-size="9">shortcut_library</text>
<text x="602" y="1075" fill="#666" font-family="Menlo" font-size="8">92</text>
<circle cx="320" cy="1524" r="3" fill="#7ED321" fill-opacity="0.6"/>
<text x="332" y="1527" fill="#ccc" font-family="Menlo" font-size="9">state_conflict_rules</text>
<text x="332" y="1537" fill="#666" font-family="Menlo" font-size="8">9</text>
<circle cx="320" cy="1612" r="3" fill="#7ED321" fill-opacity="0.6"/>
<text x="332" y="1615" fill="#ccc" font-family="Menlo" font-size="9">system_evolution</text>
<text x="332" y="1625" fill="#666" font-family="Menlo" font-size="8">4</text>
<circle cx="590" cy="1348" r="3" fill="#7ED321" fill-opacity="0.6"/>
<text x="602" y="1351" fill="#ccc" font-family="Menlo" font-size="9">table_cols</text>
<text x="602" y="1361" fill="#666" font-family="Menlo" font-size="8">17</text>
<circle cx="320" cy="1084" r="3" fill="#7ED321" fill-opacity="0.6"/>
<text x="332" y="1087" fill="#ccc" font-family="Menlo" font-size="9">table_registry</text>
<text x="332" y="1097" fill="#666" font-family="Menlo" font-size="8">87</text>
<circle cx="320" cy="1150" r="3" fill="#7ED321" fill-opacity="0.6"/>
<text x="332" y="1153" fill="#ccc" font-family="Menlo" font-size="9">themes</text>
<text x="332" y="1163" fill="#666" font-family="Menlo" font-size="8">39</text>
<circle cx="590" cy="1172" r="3" fill="#7ED321" fill-opacity="0.6"/>
<text x="602" y="1175" fill="#ccc" font-family="Menlo" font-size="9">token_links</text>
<text x="602" y="1185" fill="#666" font-family="Menlo" font-size="8">37</text>
<circle cx="590" cy="776" r="3" fill="#7ED321" fill-opacity="0.6"/>
<text x="602" y="779" fill="#ccc" font-family="Menlo" font-size="9">token_master</text>
<text x="602" y="789" fill="#666" font-family="Menlo" font-size="8">5,815</text>
<circle cx="590" cy="864" r="3" fill="#7ED321" fill-opacity="0.6"/>
<text x="602" y="867" fill="#ccc" font-family="Menlo" font-size="9">tokens</text>
<text x="602" y="877" fill="#666" font-family="Menlo" font-size="8">303</text>
<circle cx="590" cy="1018" r="3" fill="#7ED321" fill-opacity="0.6"/>
<text x="602" y="1021" fill="#ccc" font-family="Menlo" font-size="9">tooltips</text>
<text x="602" y="1031" fill="#666" font-family="Menlo" font-size="8">114</text>
<circle cx="590" cy="1150" r="3" fill="#7ED321" fill-opacity="0.6"/>
<text x="602" y="1153" fill="#ccc" font-family="Menlo" font-size="9">types</text>
<text x="602" y="1163" fill="#666" font-family="Menlo" font-size="8">38</text>
<circle cx="590" cy="1414" r="3" fill="#7ED321" fill-opacity="0.6"/>
<text x="602" y="1417" fill="#ccc" font-family="Menlo" font-size="9">why_reason_patterns</text>
<text x="602" y="1427" fill="#666" font-family="Menlo" font-size="8">12</text>
<circle cx="320" cy="1678" r="3" fill="#7ED321" fill-opacity="0.6"/>
<text x="332" y="1681" fill="#ccc" font-family="Menlo" font-size="9">widget_constraints</text>
<text x="332" y="1691" fill="#666" font-family="Menlo" font-size="8">1</text>
<circle cx="320" cy="1238" r="3" fill="#7ED321" fill-opacity="0.6"/>
<text x="332" y="1241" fill="#ccc" font-family="Menlo" font-size="9">widget_library</text>
<text x="332" y="1251" fill="#666" font-family="Menlo" font-size="8">32</text>
<circle cx="320" cy="1062" r="3" fill="#7ED321" fill-opacity="0.6"/>
<text x="332" y="1065" fill="#ccc" font-family="Menlo" font-size="9">widget_properties</text>
<text x="332" y="1075" fill="#666" font-family="Menlo" font-size="8">99</text>
<circle cx="320" cy="1304" r="3" fill="#7ED321" fill-opacity="0.6"/>
<text x="332" y="1307" fill="#ccc" font-family="Menlo" font-size="9">workflow_tokens</text>
<text x="332" y="1317" fill="#666" font-family="Menlo" font-size="8">26</text>
<rect x="50" y="1120" width="1700" height="70" fill="#1a1a2e" stroke="#333" rx="5"/>
<rect x="70" y="1135" width="14" height="14" fill="#4A90D9" rx="2"/>
<text x="90" y="1146" fill="#ccc" font-family="Menlo" font-size="11">CODEBASE</text>
<rect x="270" y="1135" width="14" height="14" fill="#F5A623" rx="2"/>
<text x="290" y="1146" fill="#ccc" font-family="Menlo" font-size="11">vb_code_test</text>
<rect x="470" y="1135" width="14" height="14" fill="#7ED321" rx="2"/>
<text x="490" y="1146" fill="#ccc" font-family="Menlo" font-size="11">vb_shared</text>
<line x1="700" y1="1142" x2="730" y2="1142" stroke="#444466" stroke-width="1" stroke-dasharray="3,2"/>
<text x="740" y="1146" fill="#ccc" font-family="Menlo" font-size="11">intra-db relationship</text>
<line x1="950" y1="1142" x2="980" y2="1142" stroke="#FF4444" stroke-width="1" stroke-dasharray="5,3"/>
<text x="990" y="1146" fill="#ccc" font-family="Menlo" font-size="11">cross-db relationship</text>
<text x="1200" y="1146" fill="#ccc" font-family="Menlo" font-size="11">12 C BCL graph units: bcl_graph_core/builder/cache/compiler/config/expand/learning/optimizer/policy/store/trace/view</text>
</svg>